<?xml version="1.0" encoding="utf-8"?>
<!-- Generator: Adobe Illustrator 27.0.0, SVG Export Plug-In . SVG Version: 6.00 Build 0)  -->
<svg version="1.1" id="Calque_1" xmlns="http://www.w3.org/2000/svg" xmlns:xlink="http://www.w3.org/1999/xlink" x="0px" y="0px"
	 viewBox="0 0 85 27" style="enable-background:new 0 0 85 27;" xml:space="preserve">
<style type="text/css">
	.st0{fill:#FFFFFF;}
</style>
<g>
	<g>
		<path class="st0" d="M33.6,24.2c-1.6,0-3-0.2-4.2-0.7c-1.2-0.5-2.1-1.2-2.8-2s-1-1.9-1-3.2c0-1.2,0.3-2.2,1-3
			c0.6-0.8,1.5-1.4,2.7-1.9c1.2-0.4,2.6-0.6,4.3-0.6c1.7,0,3.1,0.2,4.3,0.6c1.2,0.4,2.1,1.1,2.8,1.9c0.6,0.8,1,1.8,1,3
			c0,1.2-0.3,2.3-1,3.2s-1.6,1.6-2.8,2C36.7,23.9,35.3,24.2,33.6,24.2z M33.6,14.6c-1.5,0-2.8-0.2-3.9-0.6c-1.1-0.4-1.9-1-2.5-1.8
			c-0.6-0.8-0.9-1.7-0.9-2.8c0-1.1,0.3-2.1,0.9-2.9c0.6-0.8,1.5-1.4,2.6-1.9C30.9,4.2,32.2,4,33.6,4c1.5,0,2.7,0.2,3.8,0.7
			c1.1,0.4,2,1.1,2.6,1.9C40.7,7.4,41,8.3,41,9.5c0,1.1-0.3,2-0.9,2.8c-0.6,0.8-1.4,1.4-2.5,1.8C36.5,14.4,35.2,14.6,33.6,14.6z
			 M33.6,21.3c1.3,0,2.4-0.3,3.2-0.9c0.8-0.6,1.2-1.4,1.2-2.3c0-1-0.4-1.7-1.2-2.3C36.1,15.3,35,15,33.6,15c-1.3,0-2.4,0.3-3.2,0.8
			c-0.8,0.6-1.2,1.3-1.2,2.3c0,1,0.4,1.7,1.2,2.3C31.2,21.1,32.3,21.3,33.6,21.3z M33.6,12.4c1.2,0,2.1-0.2,2.7-0.7
			c0.7-0.5,1-1.2,1-2c0-0.9-0.3-1.6-1-2.1c-0.7-0.5-1.6-0.7-2.7-0.7s-2,0.2-2.7,0.7c-0.7,0.5-1,1.2-1,2.1c0,0.9,0.3,1.5,1,2
			C31.6,12.1,32.5,12.4,33.6,12.4z"/>
		<path class="st0" d="M45.1,23.9V3.1h3.5v20.8H45.1z"/>
		<path class="st0" d="M53.2,23.9V3.1h3.5v20.8H53.2z"/>
	</g>
</g>
</svg>
